<svg xmlns="http://www.w3.org/2000/svg" viewBox="0 0 116.36 122.88" style="enable-background:new 0 0 116.36 122.88" xml:space="preserve" fill="currentColor">
  <path d="M0 99.88h15V39.37L.3 41.64 0 22.47l15-2.39V2.88A2.88 2.88 0 0 1 17.88 0h27.49a2.88 2.88 0 0 1 2.88 2.88v11.91l54.11-8.61 3.06 19.18-6.29.97v5.18l11.34 12.42c.19.2.33.43.45.66h3.51c.33 0 .6.27.6.6v13.6c0 .33-.27.6-.6.6H75.86c-.33 0-.6-.27-.6-.6V45.2c0-.33.27-.6.6-.6h3.63c.13-.22.3-.43.5-.62l13.63-12.64v-4.15l-45.35 7.02v65.67H63.6v22.74H0V99.88zm20.77-80.72 9.92-1.58-9.92-7.81v9.39zm17.34-2.75 4.38-.7V5.77H24.6l13.51 10.64zm4.38 18.7-5 .77 5 3.94v-4.71zm-12.46 1.93-9.27 1.43v3.79h15.9l-6.63-5.22zm57.29 7.56h16.37l-7.51-8.22-8.86 8.22zm-60 43 15.17 11.94V87.6H27.32zM34 99.88 20.77 89.47v10.42H34v-.01zM27.32 67.7l15.17 11.94V67.7H27.32zm-6.55 14.38h15.9l-15.9-12.51v12.51zm6.54-34.3 15.18 11.95V47.78H27.31zm-6.54 14.39h15.9l-15.9-12.51v12.51zm53.26 6.99c0-.69.57-1.25 1.25-1.25h39.79c.69 0 1.25.57 1.25 1.25 0 29.66-.01 24.06.03 53.72h-42.4l.08-53.72zm23.84 30.97h8.14c.25 0 .45.21.45.45v9.86c0 .25-.21.45-.45.45h-8.14c-.25 0-.45-.21-.45-.45v-9.86c0-.25.21-.45.45-.45zm-13.79 0h8.14c.25 0 .45.21.45.45v9.86c0 .25-.21.45-.45.45h-8.14c-.25 0-.45-.21-.45-.45v-9.86c0-.25.21-.45.45-.45zm13.79-18.19h8.14c.25 0 .45.21.45.45v9.86c0 .25-.21.45-.45.45h-8.14c-.25 0-.45-.21-.45-.45v-9.86c0-.24.21-.45.45-.45zm-13.79 0h8.14c.25 0 .45.21.45.45v9.86c0 .25-.21.45-.45.45h-8.14c-.25 0-.45-.21-.45-.45v-9.86c0-.24.21-.45.45-.45zm-3.31-8.19h28.67c.49 0 .9.49.9 1.08v39.98c0 .59-.41 1.08-.9 1.08H80.77c-.49 0-.9-.49-.9-1.08V74.83c0-.59.41-1.08.9-1.08z" style="fill-rule:evenodd;clip-rule:evenodd"/>
</svg>
