<svg viewBox="0 0 24 26" fill="currentColor" xmlns="http://www.w3.org/2000/svg">
  <path fill-rule="evenodd" clip-rule="evenodd" d="M4 18.63h2.192V9.768l-2.148.333L4 7.292l2.192-.35v-2.52A.422.422 0 0 1 6.612 4h4.017a.42.42 0 0 1 .42.422v1.745l7.907-1.262.447 2.81-.919.142v.759l1.657 1.82c.028.028.048.062.066.096h.512c.049 0 .088.04.088.088v1.992c0 .048-.04.088-.087.088h-5.636a.088.088 0 0 1-.088-.088v-1.99c0-.05.04-.089.088-.089h.53a.421.421 0 0 1 .073-.09L17.68 8.59v-.608L11.053 9.01v9.62h2.24v3.33H4v-3.33ZM7.035 6.808l1.45-.232-1.45-1.144v1.376Zm2.533-.403.64-.103V4.845H7.594l1.974 1.559Zm.64 2.74-.73.112.73.577v-.69Zm-1.82.282-1.355.21v.554h2.323l-.968-.764Zm8.37 1.107h2.392L18.053 9.33l-1.295 1.204Zm-8.766 6.299 2.216 1.75v-1.75H7.992Zm.976 1.799-1.933-1.525v1.526h1.933v-.001Zm-.976-4.714 2.216 1.749v-1.749H7.992Zm-.957 2.106h2.323l-2.323-1.832v1.832ZM7.99 11l2.218 1.75V11H7.99Zm-.955 2.108h2.323l-2.323-1.833v1.833Zm7.782 1.024c0-.101.083-.183.182-.183h5.814c.1 0 .183.083.183.183 0 4.345-.002 3.524.004 7.869h-6.195l.012-7.87Zm3.483 4.537h1.19c.036 0 .065.03.065.065v1.445c0 .036-.03.066-.066.066H18.3a.067.067 0 0 1-.065-.066v-1.445c0-.036.03-.066.066-.066Zm-2.015 0h1.19c.036 0 .065.03.065.065v1.445c0 .036-.03.066-.066.066h-1.189a.067.067 0 0 1-.066-.066v-1.445c0-.036.03-.066.066-.066Zm2.015-2.665h1.19c.036 0 .065.03.065.066v1.444c0 .037-.03.066-.066.066H18.3a.067.067 0 0 1-.065-.066V16.07c0-.035.03-.066.066-.066Zm-2.015 0h1.19c.036 0 .065.03.065.066v1.444c0 .037-.03.066-.066.066h-1.189a.067.067 0 0 1-.066-.066V16.07c0-.035.03-.066.066-.066Zm-.484-1.2h4.19c.071 0 .13.072.13.158v5.857c0 .086-.059.158-.13.158H15.8c-.071 0-.131-.072-.131-.158V14.96c0-.086.06-.158.131-.158Z"/>
</svg>
