<svg version="1.0" xmlns="http://www.w3.org/2000/svg" viewBox="0 0 700 700">
  <path d="M449.5 36.1c-9.2 1.3-20.9 7.6-27.8 14.8-19.2 20.1-18.8 51.2.9 70.5 24.3 24 65.4 16.9 80-13.8 17.5-36.9-12.6-77.4-53.1-71.5z"/>
  <path d="M329 55.6c-1.9.2-8 .9-13.5 1.5-13.4 1.4-36.1 6-51.5 10.4-60.9 17.5-117.7 56.8-156.6 108.2-11.9 15.8-20.2 29.2-29.8 48.4-16.1 32.3-25.4 63-30.2 100.6-2 15.4-2.3 51.1-.5 65.8C54.2 451.4 75.7 504.1 112 550c4.5 5.8 15.3 17.5 23.9 26 46.2 46.1 105.5 75.6 171.3 85.5 23.4 3.5 58.5 3.8 82 .5 102.6-14.2 187.8-74.9 233.1-166 5.1-10.2 11.1-23.7 13.4-30 29.4-80.2 24.9-165.4-12.8-241.5-8.5-17.4-21.3-38.2-27.9-45.7-12.2-13.9-32.9-14.9-46.8-2.3-8 7.2-12 20.4-9.3 31.2.8 2.9 4.5 9.8 9.4 17.2 21.5 32.9 33.9 65.8 39.3 103.6 2.3 16.2 2.3 46.8 0 63-10.1 71.4-50.5 134-110.6 171.5-13.2 8.3-34.7 18.3-49.9 23.4-26.9 9-49 12.6-76.4 12.6-38.4 0-72-7.8-106.2-24.5-72.2-35.4-121.5-104.4-132.1-185-2-14.8-1.9-44.8.1-60 1.9-14.5 6.3-33.3 11.1-47.5 4.3-12.8 16-37.2 23.8-49.8 18.6-29.9 46.5-57.6 77.2-76.4 32.3-19.8 67.7-31.4 106.3-34.8 6.8-.5 13.5-1.3 15-1.7 8.4-2 16.7-8.8 21.3-17.5 1.9-3.6 2.3-5.8 2.3-13.8 0-8.4-.3-10.1-2.7-14.5-3.4-6.5-10-12.9-16.1-15.5-4.7-2.1-14.7-3.2-21.7-2.4z"/>
  <path d="M407.5 162c-.4.6-.5 65-.3 143.3.3 133.4.2 142.6-1.5 148.6-5.3 19.5-19.6 33.5-39.2 38.6-8 2.1-25.1 2.1-33 0-10-2.7-18.5-7.5-25.6-14.5-11.5-11.3-15.9-23.8-15.9-45.3V421H189.7l.6 17.2c1.2 39.2 11.9 68.2 35 95 7 8.1 19.3 18.9 29.2 25.6 26.8 18.1 59 27.2 95.6 27.2 37.9-.1 67.7-8.4 95.4-26.8 32.1-21.2 52.5-51.7 61.7-91.7l2.2-10 .3-148.3.4-148.2h-51c-33.4 0-51.2.4-51.6 1z"/>
</svg>
