<svg version="1.0" xmlns="http://www.w3.org/2000/svg" viewBox="0 0 1611 1611">
  <path d="M1015.5 63c-43 8.6-79.1 40.6-92.4 81.8-4.5 13.9-5.6 21.4-5.6 38.2 0 16.8 1.1 24.3 5.6 38.2 9.6 29.7 32.8 56.6 60.9 70.8 27.8 14.1 62.1 16.8 92 7.5 46.5-14.6 79.8-55.5 85.1-104.4 2.4-21.8-2.2-47.4-11.8-66.6-17.2-34.2-50.9-59.5-87.7-66-12.2-2.1-34.5-1.9-46.1.5z"/>
  <path d="M707.5 69.9c-48.3 7-91.6 16.9-133.6 30.6C352.3 173.2 178.3 345 102.6 565.8c-66.1 193-50.7 400.4 43.3 582.7 104.1 202 294.7 344.3 519.6 387.8 48.5 9.5 88.3 13.2 140.5 13.1 52.6 0 91.5-3.7 139.5-13 181.7-35.5 343.6-136.2 453-281.9 112.8-150.2 164.4-335 145.9-522.5-13.9-142-69.8-278.6-159.9-391-16.1-20-27.5-29.1-43.8-34.5-20.3-6.7-41.1-5.4-60.2 4-20.5 10-35.8 28.3-41.7 50.2-2.8 10.5-3 29.7-.4 39.8 2.5 9.8 8.5 21.8 15 30 13.6 17.1 30.1 39.3 37.4 50.2 52.1 77.8 85.1 167.7 95.6 260.3 5.4 48.2 4.6 102.1-2.4 150-23.9 162.6-115.6 308.9-250.6 399.7-29 19.5-67.1 40.3-96.4 52.8-76.2 32.3-150.5 47.7-230.5 47.8-31.1.1-48.3-1-77.4-4.9-144.7-19.3-278.4-92.5-371.2-203.2C255.4 1061 206.4 899.7 224 743c13.1-116 59.7-224.3 135.1-314.2 14.3-16.9 53.6-56.3 69.8-69.8 59.2-49.1 123.6-84.8 195.6-108.3 34.6-11.2 65-18.2 103.3-23.7 26.7-3.8 34.1-6.1 47.2-15 14.9-10.1 26.8-27.1 31.7-45 2.4-9 2.5-30.9 0-40-4.1-15.4-14.7-31.6-27.1-41.6-7.6-6.1-20.3-12.6-29.1-15-9.2-2.4-27.7-2.6-43-.5z"/>
  <path d="M932.8 358.6c-.4.3-.4 137.7-.1 305.2.4 226.5.3 308.2-.6 318.4-2.9 33.9-14 58.7-35.8 79.9-16.5 16.1-36.9 26.3-62.9 31.6-13.7 2.7-45.3 2.5-59.1-.5-52-11.2-86.8-46.8-95.8-97.7-1.1-5.9-1.8-18.3-2.2-35.8l-.6-26.7h-225l.6 28.7c1.1 49.2 5.7 79.1 17.8 115.3 22.9 68.7 70.2 127.3 136.4 168.9 13.1 8.2 42.8 22.8 58.1 28.5 73.1 27 164.4 31.8 242.9 12.6 28.5-6.9 49.8-14.8 75-27.5 34.1-17.2 61-36.9 87.6-64.2 43.5-44.7 72-99.7 83.5-161.3 6.2-33.8 5.8-6.5 6.1-356.8l.3-319.2h-112.8c-62.1 0-113.1.3-113.4.6z"/>
</svg>
