<svg version="1.0" xmlns="http://www.w3.org/2000/svg" viewBox="0 0 715 715">
  <path d="M455.2 2c-20.9 5.6-37.3 22-42.6 42.7-5 19.1 1 40.9 15.2 55.1 24.2 24.1 62.7 23.3 85.6-1.9 9.6-10.7 14.6-23.9 14.7-39 0-16.5-5.1-29.1-16.8-41.3C497.2 3.1 474.5-3.3 455.2 2z"/>
  <path d="M303.5 5.6C172.1 25.6 62.7 117 19.6 242.7 1 297-4.1 352.4 4.1 409.5c14.5 100.8 72 191 157.5 246.8 81.5 53.2 180.2 71 274.4 49.5C549.1 680.1 643.1 600.7 687 494c40.4-98.3 35-209.6-14.7-303-14.5-27.2-38.3-60.6-48.5-68-4.9-3.6-15.3-7-21.2-7-23.3 0-42 21.7-37.8 44.1 1.5 8.2 3.9 12.8 12.3 23.4 27 34 46.8 76.6 55.2 118.5 4.5 22.4 5.2 30.2 5.1 57 0 21.1-.4 28-2.3 39.9-6.4 41.9-21.3 80.1-44.6 115.1-11.5 17.2-19.8 27.3-34.5 42.1-43.4 43.5-98 70.8-160 80-12.8 1.9-19.6 2.3-39 2.3-25 0-36.3-1.2-59.2-6-56.6-11.9-111.5-43.7-149.4-86.5-38.3-43.2-60.7-91.1-69.5-148.9-3-19.2-3.2-56.2-.5-74.5 7.7-52.7 26-96.5 57.5-137.5 10-13 37.8-40.3 51.6-50.6C227 104.9 268.7 87.6 318.4 80c16.9-2.5 22.5-5 30.1-13.2 7.1-7.7 9.8-14.7 9.8-25.3.1-12.6-5-22.7-15.1-30.5-9-6.9-20.1-8.4-39.7-5.4z"/>
  <path d="M418 294.7c0 166.8.3 157.6-6.1 171-4.3 8.9-14.1 19.1-22.9 23.7-25.2 13.3-58.8 9-77.6-10C300 467.8 295 453.2 295 431v-12H187v11.4c0 44 12.1 78.7 37.7 107.9 19.3 22 47.7 40 75.8 48.1 21.5 6.1 29.1 7.1 57 7.1 27.3 0 35.2-1 55.1-6.6 55.8-15.6 98.4-60.1 110.2-115 4-18.5 4.2-25.3 4.2-179.5V143H418v151.7z"/>
</svg>
