<svg viewBox="0 0 600 601" fill="none" xmlns="http://www.w3.org/2000/svg">
  <path d="M0 0h600v601H0z"/>
  <g clip-path="url(#jnft_svg__a)">
    <path d="M600 .27v600.28H0V.43l299.22 299.04c.38.38.57.3.57-.24L299.78.77c0-.327.163-.49.49-.49L600 .27ZM120.01 516.26h-32c-.34 0-.51-.167-.51-.5v-30.2c0-.293-.147-.44-.44-.44l-32.29-.01a.292.292 0 0 0-.29.29c.03 9.5-.77 20.76 1.33 29.61 4.027 17.007 14.52 27.65 31.48 31.93 23.44 5.91 49.98.49 61.23-23.35 3.227-6.833 4.847-13.907 4.86-21.22.087-33.473.103-66.87.05-100.19a.459.459 0 0 0-.132-.312.438.438 0 0 0-.308-.128h-31.95c-.313 0-.47.157-.47.47l-.03 113.53c0 .347-.177.52-.53.52Zm91.87 29.61a.346.346 0 0 0 .247-.103.346.346 0 0 0 .103-.247l-.01-71.55c0-.093.037-.182.103-.247a.346.346 0 0 1 .247-.103h21.12a.349.349 0 0 0 .33-.45L212.34 402a.353.353 0 0 0-.34-.25l-32.23-.01a.345.345 0 0 0-.247.102.345.345 0 0 0-.103.248v143.44a.345.345 0 0 0 .103.247.345.345 0 0 0 .247.103l32.11-.01Zm44.39-72.49a.4.4 0 0 1-.4.4l-20.97-.04a.39.39 0 0 0-.18.044.4.4 0 0 0-.2.476l21.73 71.35a.402.402 0 0 0 .39.28l32.25-.03a.4.4 0 0 0 .4-.4V402.15a.4.4 0 0 0-.4-.4l-32.22-.01a.397.397 0 0 0-.4.4v71.24Zm94.08-10.67a.337.337 0 0 1-.24-.1.337.337 0 0 1-.1-.24v-29.91c0-.09.036-.177.1-.24.063-.064.15-.1.24-.1h53.44c.09 0 .177-.036.24-.1.064-.063.1-.15.1-.24v-29.69a.337.337 0 0 0-.1-.24.337.337 0 0 0-.24-.1l-86.19-.01a.339.339 0 0 0-.34.34v143.45a.339.339 0 0 0 .34.34l32.07.01c.09 0 .177-.036.24-.1.064-.063.1-.15.1-.24l-.01-51.95c0-.09.036-.177.1-.24.063-.064.15-.1.24-.1h49.77c.09 0 .177-.036.24-.1.064-.063.1-.15.1-.24v-29.87a.337.337 0 0 0-.1-.24.337.337 0 0 0-.24-.1l-49.76.01Zm153.17-30.22a.41.41 0 0 1 .41-.41l41.15.04a.414.414 0 0 0 .41-.41v-29.56a.41.41 0 0 0-.41-.41l-115.66.01a.41.41 0 0 0-.41.41l.01 29.56a.41.41 0 0 0 .41.41l40.9-.02a.41.41 0 0 1 .41.41v112.94a.41.41 0 0 0 .41.41l31.96.01a.41.41 0 0 0 .41-.41V432.49Z" fill="currentColor"/>
  </g>
  <defs>
    <clipPath id="jnft_svg__a">
      <path fill="currentColor" d="M0 0h600v601H0z"/>
    </clipPath>
  </defs>
</svg>
